<?xml version="1.0" encoding="UTF-8" standalone="no"?>
<!DOCTYPE svg PUBLIC "-//W3C//DTD SVG 1.1//EN"
 "http://www.w3.org/Graphics/SVG/1.1/DTD/svg11.dtd">
<!-- Generated by graphviz version 2.40.1 (20161225.0304)
 -->
<!-- Title: WebDir Pages: 1 -->
<svg width="346pt" height="210pt"
 viewBox="0.00 0.00 345.60 209.60" xmlns="http://www.w3.org/2000/svg" xmlns:xlink="http://www.w3.org/1999/xlink">
<g id="graph0" class="graph" transform="scale(1 1) rotate(0) translate(28.8 180.8)">
<title>WebDir</title>
<polygon fill="#ffffff" stroke="transparent" points="-28.8,28.8 -28.8,-180.8 316.8,-180.8 316.8,28.8 -28.8,28.8"/>
<text text-anchor="middle" x="144" y="-136.3" font-family="Arial Bold" font-size="13.00" fill="#000000">WebDir domain model</text>
<!-- m_Directory -->
<g id="node1" class="node">
<title>m_Directory</title>
<path fill="none" stroke="#000000" d="M12,-75.5C12,-75.5 276,-75.5 276,-75.5 282,-75.5 288,-81.5 288,-87.5 288,-87.5 288,-101.5 288,-101.5 288,-107.5 282,-113.5 276,-113.5 276,-113.5 12,-113.5 12,-113.5 6,-113.5 0,-107.5 0,-101.5 0,-101.5 0,-87.5 0,-87.5 0,-81.5 6,-75.5 12,-75.5"/>
<text text-anchor="start" x="46" y="-90.6" font-family="Arial Bold" font-size="11.00" fill="#000000">Directory</text>
<polyline fill="none" stroke="#000000" points="144,-75.5 144,-113.5 "/>
<text text-anchor="start" x="151" y="-99.5" font-family="Arial" font-size="10.00" fill="#000000">is_root </text>
<text text-anchor="start" x="185" y="-99.5" font-family="Arial Italic" font-size="10.00" fill="#999999">boolean</text>
<text text-anchor="start" x="151" y="-85.5" font-family="Arial" font-size="10.00" fill="#000000">name </text>
<text text-anchor="start" x="179" y="-85.5" font-family="Arial Italic" font-size="10.00" fill="#999999">string</text>
</g>
<!-- m_Item -->
<g id="node2" class="node">
<title>m_Item</title>
<path fill="none" stroke="#000000" d="M12,-.5C12,-.5 276,-.5 276,-.5 282,-.5 288,-6.5 288,-12.5 288,-12.5 288,-26.5 288,-26.5 288,-32.5 282,-38.5 276,-38.5 276,-38.5 12,-38.5 12,-38.5 6,-38.5 0,-32.5 0,-26.5 0,-26.5 0,-12.5 0,-12.5 0,-6.5 6,-.5 12,-.5"/>
<text text-anchor="start" x="58.5" y="-15.6" font-family="Arial Bold" font-size="11.00" fill="#000000">Item</text>
<polyline fill="none" stroke="#000000" points="144,-.5 144,-38.5 "/>
<text text-anchor="start" x="151" y="-24.5" font-family="Arial" font-size="10.00" fill="#000000">content </text>
<text text-anchor="start" x="187" y="-24.5" font-family="Arial Italic" font-size="10.00" fill="#999999">string</text>
<text text-anchor="start" x="151" y="-10.5" font-family="Arial" font-size="10.00" fill="#000000">subject </text>
<text text-anchor="start" x="186" y="-10.5" font-family="Arial Italic" font-size="10.00" fill="#999999">string</text>
</g>
<!-- m_Directory&#45;&gt;m_Item -->
<g id="edge1" class="edge">
<title>m_Directory&#45;&gt;m_Item</title>
<path fill="none" stroke="#000000" d="M144,-75.1856C144,-66.8748 144,-56.9915 144,-47.8745"/>
<polygon fill="#000000" stroke="#000000" points="147.1501,-47.7489 144,-38.7489 140.8501,-47.7489 147.1501,-47.7489"/>
</g>
</g>
</svg>
